<mxfile host="app.diagrams.net" agent="Mozilla/5.0 (X11; Linux x86_64) AppleWebKit/537.36 (KHTML, like Gecko) Chrome/130.0.0.0 Safari/537.36" version="24.7.17">
  <diagram name="Страница — 1" id="RUNLWkEsqjCO8Yjy3WE6">
    <mxGraphModel dx="1509" dy="789" grid="1" gridSize="10" guides="1" tooltips="1" connect="1" arrows="1" fold="1" page="1" pageScale="1" pageWidth="827" pageHeight="1169" math="0" shadow="0">
      <root>
        <mxCell id="0" />
        <mxCell id="1" parent="0" />
        <mxCell id="VaOTeJD18OuPtdKX_SD6-4" style="edgeStyle=orthogonalEdgeStyle;rounded=0;orthogonalLoop=1;jettySize=auto;html=1;exitX=0.5;exitY=1;exitDx=0;exitDy=0;entryX=0.5;entryY=0;entryDx=0;entryDy=0;" edge="1" parent="1" source="VaOTeJD18OuPtdKX_SD6-1" target="VaOTeJD18OuPtdKX_SD6-3">
          <mxGeometry relative="1" as="geometry" />
        </mxCell>
        <mxCell id="VaOTeJD18OuPtdKX_SD6-1" value="начало" style="rounded=1;whiteSpace=wrap;html=1;" vertex="1" parent="1">
          <mxGeometry x="370" y="10" width="104" height="20" as="geometry" />
        </mxCell>
        <mxCell id="VaOTeJD18OuPtdKX_SD6-6" style="edgeStyle=orthogonalEdgeStyle;rounded=0;orthogonalLoop=1;jettySize=auto;html=1;exitX=0.5;exitY=1;exitDx=0;exitDy=0;entryX=0.5;entryY=0;entryDx=0;entryDy=0;" edge="1" parent="1" source="VaOTeJD18OuPtdKX_SD6-3" target="VaOTeJD18OuPtdKX_SD6-5">
          <mxGeometry relative="1" as="geometry" />
        </mxCell>
        <mxCell id="VaOTeJD18OuPtdKX_SD6-3" value="&lt;div&gt;points = {Point{0,0}...};&lt;/div&gt;k = 10000;&lt;div&gt;distrib = rand(0, points.size());&lt;/div&gt;&lt;div&gt;i = 0;&lt;/div&gt;" style="rounded=0;whiteSpace=wrap;html=1;" vertex="1" parent="1">
          <mxGeometry x="332.5" y="60" width="179" height="60" as="geometry" />
        </mxCell>
        <mxCell id="VaOTeJD18OuPtdKX_SD6-9" style="edgeStyle=orthogonalEdgeStyle;rounded=0;orthogonalLoop=1;jettySize=auto;html=1;exitX=0.5;exitY=1;exitDx=0;exitDy=0;entryX=0.5;entryY=0;entryDx=0;entryDy=0;" edge="1" parent="1" source="VaOTeJD18OuPtdKX_SD6-5" target="VaOTeJD18OuPtdKX_SD6-7">
          <mxGeometry relative="1" as="geometry" />
        </mxCell>
        <mxCell id="VaOTeJD18OuPtdKX_SD6-11" value="да" style="edgeLabel;html=1;align=center;verticalAlign=middle;resizable=0;points=[];" vertex="1" connectable="0" parent="VaOTeJD18OuPtdKX_SD6-9">
          <mxGeometry x="-0.4143" y="-1" relative="1" as="geometry">
            <mxPoint as="offset" />
          </mxGeometry>
        </mxCell>
        <mxCell id="VaOTeJD18OuPtdKX_SD6-13" style="edgeStyle=orthogonalEdgeStyle;rounded=0;orthogonalLoop=1;jettySize=auto;html=1;exitX=0;exitY=0.5;exitDx=0;exitDy=0;entryX=0.5;entryY=0;entryDx=0;entryDy=0;" edge="1" parent="1" source="VaOTeJD18OuPtdKX_SD6-5" target="VaOTeJD18OuPtdKX_SD6-12">
          <mxGeometry relative="1" as="geometry">
            <Array as="points">
              <mxPoint x="310" y="155" />
              <mxPoint x="310" y="270" />
              <mxPoint x="422" y="270" />
            </Array>
          </mxGeometry>
        </mxCell>
        <mxCell id="VaOTeJD18OuPtdKX_SD6-19" value="нет" style="edgeLabel;html=1;align=center;verticalAlign=middle;resizable=0;points=[];" vertex="1" connectable="0" parent="VaOTeJD18OuPtdKX_SD6-13">
          <mxGeometry x="-0.9224" y="2" relative="1" as="geometry">
            <mxPoint as="offset" />
          </mxGeometry>
        </mxCell>
        <mxCell id="VaOTeJD18OuPtdKX_SD6-5" value="i &amp;lt; k" style="rhombus;whiteSpace=wrap;html=1;" vertex="1" parent="1">
          <mxGeometry x="398" y="140" width="48" height="30" as="geometry" />
        </mxCell>
        <mxCell id="VaOTeJD18OuPtdKX_SD6-10" style="edgeStyle=orthogonalEdgeStyle;rounded=0;orthogonalLoop=1;jettySize=auto;html=1;exitX=0.5;exitY=1;exitDx=0;exitDy=0;entryX=1;entryY=0.5;entryDx=0;entryDy=0;" edge="1" parent="1" source="VaOTeJD18OuPtdKX_SD6-7" target="VaOTeJD18OuPtdKX_SD6-5">
          <mxGeometry relative="1" as="geometry">
            <Array as="points">
              <mxPoint x="422" y="260" />
              <mxPoint x="550" y="260" />
              <mxPoint x="550" y="155" />
            </Array>
          </mxGeometry>
        </mxCell>
        <mxCell id="VaOTeJD18OuPtdKX_SD6-7" value="idX = distrib.next();&lt;div&gt;centroids.pushback(points[idx]);&lt;/div&gt;&lt;div&gt;i++;&lt;/div&gt;" style="rounded=0;whiteSpace=wrap;html=1;" vertex="1" parent="1">
          <mxGeometry x="328" y="190" width="188" height="50" as="geometry" />
        </mxCell>
        <mxCell id="VaOTeJD18OuPtdKX_SD6-15" style="edgeStyle=orthogonalEdgeStyle;rounded=0;orthogonalLoop=1;jettySize=auto;html=1;exitX=0.5;exitY=1;exitDx=0;exitDy=0;entryX=0.5;entryY=0;entryDx=0;entryDy=0;" edge="1" parent="1" source="VaOTeJD18OuPtdKX_SD6-12" target="VaOTeJD18OuPtdKX_SD6-14">
          <mxGeometry relative="1" as="geometry" />
        </mxCell>
        <mxCell id="VaOTeJD18OuPtdKX_SD6-12" value="changed = 1" style="rounded=0;whiteSpace=wrap;html=1;" vertex="1" parent="1">
          <mxGeometry x="383" y="290" width="78" height="30" as="geometry" />
        </mxCell>
        <mxCell id="VaOTeJD18OuPtdKX_SD6-17" style="edgeStyle=orthogonalEdgeStyle;rounded=0;orthogonalLoop=1;jettySize=auto;html=1;exitX=1;exitY=0.5;exitDx=0;exitDy=0;entryX=0;entryY=0.5;entryDx=0;entryDy=0;" edge="1" parent="1" source="VaOTeJD18OuPtdKX_SD6-14" target="VaOTeJD18OuPtdKX_SD6-16">
          <mxGeometry relative="1" as="geometry" />
        </mxCell>
        <mxCell id="VaOTeJD18OuPtdKX_SD6-18" value="да" style="edgeLabel;html=1;align=center;verticalAlign=middle;resizable=0;points=[];" vertex="1" connectable="0" parent="VaOTeJD18OuPtdKX_SD6-17">
          <mxGeometry x="-0.3351" y="-2" relative="1" as="geometry">
            <mxPoint as="offset" />
          </mxGeometry>
        </mxCell>
        <mxCell id="VaOTeJD18OuPtdKX_SD6-91" style="edgeStyle=orthogonalEdgeStyle;rounded=0;orthogonalLoop=1;jettySize=auto;html=1;exitX=0.5;exitY=1;exitDx=0;exitDy=0;entryX=1;entryY=0.5;entryDx=0;entryDy=0;" edge="1" parent="1" source="VaOTeJD18OuPtdKX_SD6-14" target="VaOTeJD18OuPtdKX_SD6-90">
          <mxGeometry relative="1" as="geometry" />
        </mxCell>
        <mxCell id="VaOTeJD18OuPtdKX_SD6-93" value="нет" style="edgeLabel;html=1;align=center;verticalAlign=middle;resizable=0;points=[];" vertex="1" connectable="0" parent="VaOTeJD18OuPtdKX_SD6-91">
          <mxGeometry x="-0.878" relative="1" as="geometry">
            <mxPoint as="offset" />
          </mxGeometry>
        </mxCell>
        <mxCell id="VaOTeJD18OuPtdKX_SD6-14" value="changed &amp;gt;0" style="rhombus;whiteSpace=wrap;html=1;" vertex="1" parent="1">
          <mxGeometry x="383" y="350" width="78" height="40" as="geometry" />
        </mxCell>
        <mxCell id="VaOTeJD18OuPtdKX_SD6-22" style="edgeStyle=orthogonalEdgeStyle;rounded=0;orthogonalLoop=1;jettySize=auto;html=1;exitX=0.5;exitY=0;exitDx=0;exitDy=0;entryX=0.5;entryY=0;entryDx=0;entryDy=0;" edge="1" parent="1" source="VaOTeJD18OuPtdKX_SD6-16" target="VaOTeJD18OuPtdKX_SD6-20">
          <mxGeometry relative="1" as="geometry" />
        </mxCell>
        <mxCell id="VaOTeJD18OuPtdKX_SD6-16" value="changed = 0&lt;div&gt;point = points.begin()&lt;/div&gt;" style="rounded=0;whiteSpace=wrap;html=1;" vertex="1" parent="1">
          <mxGeometry x="516" y="360" width="124" height="30" as="geometry" />
        </mxCell>
        <mxCell id="VaOTeJD18OuPtdKX_SD6-26" style="edgeStyle=orthogonalEdgeStyle;rounded=0;orthogonalLoop=1;jettySize=auto;html=1;exitX=0.5;exitY=1;exitDx=0;exitDy=0;entryX=0.5;entryY=0;entryDx=0;entryDy=0;" edge="1" parent="1" source="VaOTeJD18OuPtdKX_SD6-20" target="VaOTeJD18OuPtdKX_SD6-23">
          <mxGeometry relative="1" as="geometry" />
        </mxCell>
        <mxCell id="VaOTeJD18OuPtdKX_SD6-27" value="да" style="edgeLabel;html=1;align=center;verticalAlign=middle;resizable=0;points=[];" vertex="1" connectable="0" parent="VaOTeJD18OuPtdKX_SD6-26">
          <mxGeometry x="-0.0429" y="-2" relative="1" as="geometry">
            <mxPoint as="offset" />
          </mxGeometry>
        </mxCell>
        <mxCell id="VaOTeJD18OuPtdKX_SD6-58" style="edgeStyle=orthogonalEdgeStyle;rounded=0;orthogonalLoop=1;jettySize=auto;html=1;exitX=1;exitY=0.5;exitDx=0;exitDy=0;entryX=0.5;entryY=0;entryDx=0;entryDy=0;" edge="1" parent="1" source="VaOTeJD18OuPtdKX_SD6-20" target="VaOTeJD18OuPtdKX_SD6-57">
          <mxGeometry relative="1" as="geometry">
            <Array as="points">
              <mxPoint x="1150" y="70" />
              <mxPoint x="1150" y="550" />
              <mxPoint x="690" y="550" />
              <mxPoint x="690" y="440" />
              <mxPoint x="414" y="440" />
            </Array>
          </mxGeometry>
        </mxCell>
        <mxCell id="VaOTeJD18OuPtdKX_SD6-88" value="нет" style="edgeLabel;html=1;align=center;verticalAlign=middle;resizable=0;points=[];" vertex="1" connectable="0" parent="VaOTeJD18OuPtdKX_SD6-58">
          <mxGeometry x="-0.9789" y="-5" relative="1" as="geometry">
            <mxPoint as="offset" />
          </mxGeometry>
        </mxCell>
        <mxCell id="VaOTeJD18OuPtdKX_SD6-20" value="point != points.end()" style="rhombus;whiteSpace=wrap;html=1;" vertex="1" parent="1">
          <mxGeometry x="921.5" y="50" width="138" height="40" as="geometry" />
        </mxCell>
        <mxCell id="VaOTeJD18OuPtdKX_SD6-25" style="edgeStyle=orthogonalEdgeStyle;rounded=0;orthogonalLoop=1;jettySize=auto;html=1;exitX=0.5;exitY=1;exitDx=0;exitDy=0;entryX=0.5;entryY=0;entryDx=0;entryDy=0;" edge="1" parent="1" source="VaOTeJD18OuPtdKX_SD6-23" target="VaOTeJD18OuPtdKX_SD6-24">
          <mxGeometry relative="1" as="geometry" />
        </mxCell>
        <mxCell id="VaOTeJD18OuPtdKX_SD6-23" value="nearest = -1;&lt;div&gt;minDist = 99999999;&lt;/div&gt;&lt;div&gt;i = 0;&lt;/div&gt;" style="rounded=0;whiteSpace=wrap;html=1;" vertex="1" parent="1">
          <mxGeometry x="930.5" y="110" width="120" height="40" as="geometry" />
        </mxCell>
        <mxCell id="VaOTeJD18OuPtdKX_SD6-29" style="edgeStyle=orthogonalEdgeStyle;rounded=0;orthogonalLoop=1;jettySize=auto;html=1;exitX=0.5;exitY=1;exitDx=0;exitDy=0;entryX=0.5;entryY=0;entryDx=0;entryDy=0;" edge="1" parent="1" source="VaOTeJD18OuPtdKX_SD6-24" target="VaOTeJD18OuPtdKX_SD6-28">
          <mxGeometry relative="1" as="geometry" />
        </mxCell>
        <mxCell id="VaOTeJD18OuPtdKX_SD6-30" value="да" style="edgeLabel;html=1;align=center;verticalAlign=middle;resizable=0;points=[];" vertex="1" connectable="0" parent="VaOTeJD18OuPtdKX_SD6-29">
          <mxGeometry x="-0.2914" y="-2" relative="1" as="geometry">
            <mxPoint as="offset" />
          </mxGeometry>
        </mxCell>
        <mxCell id="VaOTeJD18OuPtdKX_SD6-86" style="edgeStyle=orthogonalEdgeStyle;rounded=0;orthogonalLoop=1;jettySize=auto;html=1;exitX=1;exitY=0.5;exitDx=0;exitDy=0;entryX=0.5;entryY=1;entryDx=0;entryDy=0;" edge="1" parent="1" source="VaOTeJD18OuPtdKX_SD6-24" target="VaOTeJD18OuPtdKX_SD6-45">
          <mxGeometry relative="1" as="geometry">
            <Array as="points">
              <mxPoint x="1100" y="203" />
              <mxPoint x="1100" y="530" />
              <mxPoint x="740" y="530" />
            </Array>
          </mxGeometry>
        </mxCell>
        <mxCell id="VaOTeJD18OuPtdKX_SD6-87" value="нет" style="edgeLabel;html=1;align=center;verticalAlign=middle;resizable=0;points=[];" vertex="1" connectable="0" parent="VaOTeJD18OuPtdKX_SD6-86">
          <mxGeometry x="-0.9412" y="-2" relative="1" as="geometry">
            <mxPoint as="offset" />
          </mxGeometry>
        </mxCell>
        <mxCell id="VaOTeJD18OuPtdKX_SD6-24" value="i &amp;lt; k" style="rhombus;whiteSpace=wrap;html=1;" vertex="1" parent="1">
          <mxGeometry x="965" y="180" width="51" height="45" as="geometry" />
        </mxCell>
        <mxCell id="VaOTeJD18OuPtdKX_SD6-32" style="edgeStyle=orthogonalEdgeStyle;rounded=0;orthogonalLoop=1;jettySize=auto;html=1;exitX=0.5;exitY=1;exitDx=0;exitDy=0;entryX=0.5;entryY=0;entryDx=0;entryDy=0;" edge="1" parent="1" source="VaOTeJD18OuPtdKX_SD6-28" target="VaOTeJD18OuPtdKX_SD6-31">
          <mxGeometry relative="1" as="geometry" />
        </mxCell>
        <mxCell id="VaOTeJD18OuPtdKX_SD6-28" value="dist = distance(point, centroids[i]);" style="rounded=0;whiteSpace=wrap;html=1;" vertex="1" parent="1">
          <mxGeometry x="890" y="250" width="201" height="30" as="geometry" />
        </mxCell>
        <mxCell id="VaOTeJD18OuPtdKX_SD6-34" style="edgeStyle=orthogonalEdgeStyle;rounded=0;orthogonalLoop=1;jettySize=auto;html=1;exitX=0.5;exitY=1;exitDx=0;exitDy=0;entryX=0.5;entryY=0;entryDx=0;entryDy=0;" edge="1" parent="1" source="VaOTeJD18OuPtdKX_SD6-31" target="VaOTeJD18OuPtdKX_SD6-33">
          <mxGeometry relative="1" as="geometry" />
        </mxCell>
        <mxCell id="VaOTeJD18OuPtdKX_SD6-35" value="да" style="edgeLabel;html=1;align=center;verticalAlign=middle;resizable=0;points=[];" vertex="1" connectable="0" parent="VaOTeJD18OuPtdKX_SD6-34">
          <mxGeometry x="-0.4143" y="-2" relative="1" as="geometry">
            <mxPoint as="offset" />
          </mxGeometry>
        </mxCell>
        <mxCell id="VaOTeJD18OuPtdKX_SD6-43" style="edgeStyle=orthogonalEdgeStyle;rounded=0;orthogonalLoop=1;jettySize=auto;html=1;exitX=1;exitY=0.5;exitDx=0;exitDy=0;entryX=1;entryY=0.5;entryDx=0;entryDy=0;" edge="1" parent="1" source="VaOTeJD18OuPtdKX_SD6-31" target="VaOTeJD18OuPtdKX_SD6-36">
          <mxGeometry relative="1" as="geometry" />
        </mxCell>
        <mxCell id="VaOTeJD18OuPtdKX_SD6-44" value="нет" style="edgeLabel;html=1;align=center;verticalAlign=middle;resizable=0;points=[];" vertex="1" connectable="0" parent="VaOTeJD18OuPtdKX_SD6-43">
          <mxGeometry x="-0.9401" y="1" relative="1" as="geometry">
            <mxPoint as="offset" />
          </mxGeometry>
        </mxCell>
        <mxCell id="VaOTeJD18OuPtdKX_SD6-31" value="dist &amp;lt; minDist" style="rhombus;whiteSpace=wrap;html=1;" vertex="1" parent="1">
          <mxGeometry x="940" y="300" width="101" height="40" as="geometry" />
        </mxCell>
        <mxCell id="VaOTeJD18OuPtdKX_SD6-37" style="edgeStyle=orthogonalEdgeStyle;rounded=0;orthogonalLoop=1;jettySize=auto;html=1;exitX=0.5;exitY=1;exitDx=0;exitDy=0;entryX=0.5;entryY=0;entryDx=0;entryDy=0;" edge="1" parent="1" source="VaOTeJD18OuPtdKX_SD6-33" target="VaOTeJD18OuPtdKX_SD6-36">
          <mxGeometry relative="1" as="geometry" />
        </mxCell>
        <mxCell id="VaOTeJD18OuPtdKX_SD6-33" value="minDist = dist;&lt;div&gt;nearest = i;&lt;/div&gt;" style="rounded=0;whiteSpace=wrap;html=1;" vertex="1" parent="1">
          <mxGeometry x="945" y="360" width="91" height="40" as="geometry" />
        </mxCell>
        <mxCell id="VaOTeJD18OuPtdKX_SD6-46" style="edgeStyle=orthogonalEdgeStyle;rounded=0;orthogonalLoop=1;jettySize=auto;html=1;exitX=0;exitY=0.5;exitDx=0;exitDy=0;entryX=0;entryY=0.5;entryDx=0;entryDy=0;" edge="1" parent="1" source="VaOTeJD18OuPtdKX_SD6-36" target="VaOTeJD18OuPtdKX_SD6-24">
          <mxGeometry relative="1" as="geometry">
            <Array as="points">
              <mxPoint x="880" y="450" />
              <mxPoint x="880" y="203" />
            </Array>
          </mxGeometry>
        </mxCell>
        <mxCell id="VaOTeJD18OuPtdKX_SD6-36" value="i++;" style="rounded=0;whiteSpace=wrap;html=1;" vertex="1" parent="1">
          <mxGeometry x="970" y="440" width="41" height="20" as="geometry" />
        </mxCell>
        <mxCell id="VaOTeJD18OuPtdKX_SD6-49" style="edgeStyle=orthogonalEdgeStyle;rounded=0;orthogonalLoop=1;jettySize=auto;html=1;exitX=0.5;exitY=0;exitDx=0;exitDy=0;entryX=0.5;entryY=1;entryDx=0;entryDy=0;" edge="1" parent="1" source="VaOTeJD18OuPtdKX_SD6-45" target="VaOTeJD18OuPtdKX_SD6-48">
          <mxGeometry relative="1" as="geometry" />
        </mxCell>
        <mxCell id="VaOTeJD18OuPtdKX_SD6-50" value="да" style="edgeLabel;html=1;align=center;verticalAlign=middle;resizable=0;points=[];" vertex="1" connectable="0" parent="VaOTeJD18OuPtdKX_SD6-49">
          <mxGeometry x="-0.3034" y="1" relative="1" as="geometry">
            <mxPoint as="offset" />
          </mxGeometry>
        </mxCell>
        <mxCell id="VaOTeJD18OuPtdKX_SD6-53" style="edgeStyle=orthogonalEdgeStyle;rounded=0;orthogonalLoop=1;jettySize=auto;html=1;entryX=1;entryY=0.5;entryDx=0;entryDy=0;" edge="1" parent="1" source="VaOTeJD18OuPtdKX_SD6-45" target="VaOTeJD18OuPtdKX_SD6-51">
          <mxGeometry relative="1" as="geometry">
            <Array as="points">
              <mxPoint x="820" y="470" />
              <mxPoint x="820" y="273" />
            </Array>
          </mxGeometry>
        </mxCell>
        <mxCell id="VaOTeJD18OuPtdKX_SD6-54" value="нет" style="edgeLabel;html=1;align=center;verticalAlign=middle;resizable=0;points=[];" vertex="1" connectable="0" parent="VaOTeJD18OuPtdKX_SD6-53">
          <mxGeometry x="-0.9342" y="-3" relative="1" as="geometry">
            <mxPoint as="offset" />
          </mxGeometry>
        </mxCell>
        <mxCell id="VaOTeJD18OuPtdKX_SD6-45" value="point.cluster != nearest" style="rhombus;whiteSpace=wrap;html=1;" vertex="1" parent="1">
          <mxGeometry x="700" y="430" width="80" height="80" as="geometry" />
        </mxCell>
        <mxCell id="VaOTeJD18OuPtdKX_SD6-52" style="edgeStyle=orthogonalEdgeStyle;rounded=0;orthogonalLoop=1;jettySize=auto;html=1;exitX=0.5;exitY=0;exitDx=0;exitDy=0;entryX=0.5;entryY=1;entryDx=0;entryDy=0;" edge="1" parent="1" source="VaOTeJD18OuPtdKX_SD6-48" target="VaOTeJD18OuPtdKX_SD6-51">
          <mxGeometry relative="1" as="geometry" />
        </mxCell>
        <mxCell id="VaOTeJD18OuPtdKX_SD6-48" value="point.cluster = nearest;&lt;div&gt;changed++;&lt;/div&gt;" style="rounded=0;whiteSpace=wrap;html=1;" vertex="1" parent="1">
          <mxGeometry x="675" y="340" width="130" height="60" as="geometry" />
        </mxCell>
        <mxCell id="VaOTeJD18OuPtdKX_SD6-55" style="edgeStyle=orthogonalEdgeStyle;rounded=0;orthogonalLoop=1;jettySize=auto;html=1;exitX=0.5;exitY=0;exitDx=0;exitDy=0;entryX=0;entryY=0.5;entryDx=0;entryDy=0;" edge="1" parent="1" source="VaOTeJD18OuPtdKX_SD6-51" target="VaOTeJD18OuPtdKX_SD6-20">
          <mxGeometry relative="1" as="geometry" />
        </mxCell>
        <mxCell id="VaOTeJD18OuPtdKX_SD6-51" value="point.next();" style="rounded=0;whiteSpace=wrap;html=1;" vertex="1" parent="1">
          <mxGeometry x="695" y="250" width="90" height="45" as="geometry" />
        </mxCell>
        <mxCell id="VaOTeJD18OuPtdKX_SD6-60" style="edgeStyle=orthogonalEdgeStyle;rounded=0;orthogonalLoop=1;jettySize=auto;html=1;entryX=0.5;entryY=0;entryDx=0;entryDy=0;" edge="1" parent="1" source="VaOTeJD18OuPtdKX_SD6-57" target="VaOTeJD18OuPtdKX_SD6-59">
          <mxGeometry relative="1" as="geometry" />
        </mxCell>
        <mxCell id="VaOTeJD18OuPtdKX_SD6-57" value="i = 0;" style="rounded=0;whiteSpace=wrap;html=1;" vertex="1" parent="1">
          <mxGeometry x="391" y="455" width="46" height="30" as="geometry" />
        </mxCell>
        <mxCell id="VaOTeJD18OuPtdKX_SD6-63" style="edgeStyle=orthogonalEdgeStyle;rounded=0;orthogonalLoop=1;jettySize=auto;html=1;exitX=0.5;exitY=1;exitDx=0;exitDy=0;entryX=0.5;entryY=0;entryDx=0;entryDy=0;" edge="1" parent="1" source="VaOTeJD18OuPtdKX_SD6-59" target="VaOTeJD18OuPtdKX_SD6-62">
          <mxGeometry relative="1" as="geometry" />
        </mxCell>
        <mxCell id="VaOTeJD18OuPtdKX_SD6-64" value="да" style="edgeLabel;html=1;align=center;verticalAlign=middle;resizable=0;points=[];" vertex="1" connectable="0" parent="VaOTeJD18OuPtdKX_SD6-63">
          <mxGeometry x="-0.1333" y="-2" relative="1" as="geometry">
            <mxPoint as="offset" />
          </mxGeometry>
        </mxCell>
        <mxCell id="VaOTeJD18OuPtdKX_SD6-89" style="edgeStyle=orthogonalEdgeStyle;rounded=0;orthogonalLoop=1;jettySize=auto;html=1;exitX=0;exitY=0.5;exitDx=0;exitDy=0;entryX=0;entryY=0.5;entryDx=0;entryDy=0;" edge="1" parent="1" source="VaOTeJD18OuPtdKX_SD6-59" target="VaOTeJD18OuPtdKX_SD6-14">
          <mxGeometry relative="1" as="geometry" />
        </mxCell>
        <mxCell id="VaOTeJD18OuPtdKX_SD6-59" value="i &amp;lt; k" style="rhombus;whiteSpace=wrap;html=1;" vertex="1" parent="1">
          <mxGeometry x="381" y="530" width="66" height="40" as="geometry" />
        </mxCell>
        <mxCell id="VaOTeJD18OuPtdKX_SD6-82" style="edgeStyle=orthogonalEdgeStyle;rounded=0;orthogonalLoop=1;jettySize=auto;html=1;exitX=1;exitY=0.5;exitDx=0;exitDy=0;entryX=0;entryY=0.5;entryDx=0;entryDy=0;" edge="1" parent="1" source="VaOTeJD18OuPtdKX_SD6-62" target="VaOTeJD18OuPtdKX_SD6-65">
          <mxGeometry relative="1" as="geometry">
            <Array as="points">
              <mxPoint x="615" y="630" />
            </Array>
          </mxGeometry>
        </mxCell>
        <mxCell id="VaOTeJD18OuPtdKX_SD6-62" value="float sumX = 0;&lt;div&gt;float sumY = 0;&lt;/div&gt;&lt;div&gt;int count = 0;&lt;/div&gt;&lt;div&gt;point = points.begin();&lt;/div&gt;" style="rounded=0;whiteSpace=wrap;html=1;" vertex="1" parent="1">
          <mxGeometry x="354" y="600" width="120" height="60" as="geometry" />
        </mxCell>
        <mxCell id="VaOTeJD18OuPtdKX_SD6-68" style="edgeStyle=orthogonalEdgeStyle;rounded=0;orthogonalLoop=1;jettySize=auto;html=1;exitX=0.5;exitY=1;exitDx=0;exitDy=0;entryX=0.5;entryY=0;entryDx=0;entryDy=0;" edge="1" parent="1" source="VaOTeJD18OuPtdKX_SD6-65" target="VaOTeJD18OuPtdKX_SD6-67">
          <mxGeometry relative="1" as="geometry" />
        </mxCell>
        <mxCell id="VaOTeJD18OuPtdKX_SD6-70" value="да" style="edgeLabel;html=1;align=center;verticalAlign=middle;resizable=0;points=[];" vertex="1" connectable="0" parent="VaOTeJD18OuPtdKX_SD6-68">
          <mxGeometry x="0.2" y="-2" relative="1" as="geometry">
            <mxPoint as="offset" />
          </mxGeometry>
        </mxCell>
        <mxCell id="VaOTeJD18OuPtdKX_SD6-83" style="edgeStyle=orthogonalEdgeStyle;rounded=0;orthogonalLoop=1;jettySize=auto;html=1;exitX=0.5;exitY=0;exitDx=0;exitDy=0;entryX=1;entryY=0.5;entryDx=0;entryDy=0;" edge="1" parent="1" source="VaOTeJD18OuPtdKX_SD6-65" target="VaOTeJD18OuPtdKX_SD6-80">
          <mxGeometry relative="1" as="geometry" />
        </mxCell>
        <mxCell id="VaOTeJD18OuPtdKX_SD6-84" value="нет" style="edgeLabel;html=1;align=center;verticalAlign=middle;resizable=0;points=[];" vertex="1" connectable="0" parent="VaOTeJD18OuPtdKX_SD6-83">
          <mxGeometry x="-0.5695" y="-1" relative="1" as="geometry">
            <mxPoint as="offset" />
          </mxGeometry>
        </mxCell>
        <mxCell id="VaOTeJD18OuPtdKX_SD6-65" value="point != points.end()" style="rhombus;whiteSpace=wrap;html=1;" vertex="1" parent="1">
          <mxGeometry x="615" y="600" width="80" height="60" as="geometry" />
        </mxCell>
        <mxCell id="VaOTeJD18OuPtdKX_SD6-74" style="edgeStyle=orthogonalEdgeStyle;rounded=0;orthogonalLoop=1;jettySize=auto;html=1;exitX=0.5;exitY=1;exitDx=0;exitDy=0;entryX=0.5;entryY=0;entryDx=0;entryDy=0;" edge="1" parent="1" source="VaOTeJD18OuPtdKX_SD6-67" target="VaOTeJD18OuPtdKX_SD6-71">
          <mxGeometry relative="1" as="geometry" />
        </mxCell>
        <mxCell id="VaOTeJD18OuPtdKX_SD6-75" value="да" style="edgeLabel;html=1;align=center;verticalAlign=middle;resizable=0;points=[];" vertex="1" connectable="0" parent="VaOTeJD18OuPtdKX_SD6-74">
          <mxGeometry x="-0.4" y="3" relative="1" as="geometry">
            <mxPoint as="offset" />
          </mxGeometry>
        </mxCell>
        <mxCell id="VaOTeJD18OuPtdKX_SD6-77" style="edgeStyle=orthogonalEdgeStyle;rounded=0;orthogonalLoop=1;jettySize=auto;html=1;exitX=1;exitY=0.5;exitDx=0;exitDy=0;entryX=0;entryY=0.5;entryDx=0;entryDy=0;" edge="1" parent="1" source="VaOTeJD18OuPtdKX_SD6-67" target="VaOTeJD18OuPtdKX_SD6-73">
          <mxGeometry relative="1" as="geometry" />
        </mxCell>
        <mxCell id="VaOTeJD18OuPtdKX_SD6-78" value="нет" style="edgeLabel;html=1;align=center;verticalAlign=middle;resizable=0;points=[];" vertex="1" connectable="0" parent="VaOTeJD18OuPtdKX_SD6-77">
          <mxGeometry x="-0.2" y="1" relative="1" as="geometry">
            <mxPoint as="offset" />
          </mxGeometry>
        </mxCell>
        <mxCell id="VaOTeJD18OuPtdKX_SD6-67" value="point.cluster == i" style="rhombus;whiteSpace=wrap;html=1;" vertex="1" parent="1">
          <mxGeometry x="597.5" y="700" width="115" height="50" as="geometry" />
        </mxCell>
        <mxCell id="VaOTeJD18OuPtdKX_SD6-76" style="edgeStyle=orthogonalEdgeStyle;rounded=0;orthogonalLoop=1;jettySize=auto;html=1;exitX=1;exitY=0.5;exitDx=0;exitDy=0;entryX=0.5;entryY=1;entryDx=0;entryDy=0;" edge="1" parent="1" source="VaOTeJD18OuPtdKX_SD6-71" target="VaOTeJD18OuPtdKX_SD6-73">
          <mxGeometry relative="1" as="geometry" />
        </mxCell>
        <mxCell id="VaOTeJD18OuPtdKX_SD6-71" value="sumX += point.x;&lt;div&gt;sumY += point.y;&lt;/div&gt;&lt;div&gt;++count;&lt;/div&gt;" style="rounded=0;whiteSpace=wrap;html=1;" vertex="1" parent="1">
          <mxGeometry x="595" y="800" width="120" height="60" as="geometry" />
        </mxCell>
        <mxCell id="VaOTeJD18OuPtdKX_SD6-79" style="edgeStyle=orthogonalEdgeStyle;rounded=0;orthogonalLoop=1;jettySize=auto;html=1;exitX=0.5;exitY=0;exitDx=0;exitDy=0;entryX=1;entryY=0.5;entryDx=0;entryDy=0;" edge="1" parent="1" source="VaOTeJD18OuPtdKX_SD6-73" target="VaOTeJD18OuPtdKX_SD6-65">
          <mxGeometry relative="1" as="geometry" />
        </mxCell>
        <mxCell id="VaOTeJD18OuPtdKX_SD6-73" value="point.next()" style="rounded=0;whiteSpace=wrap;html=1;" vertex="1" parent="1">
          <mxGeometry x="750" y="695" width="120" height="60" as="geometry" />
        </mxCell>
        <mxCell id="VaOTeJD18OuPtdKX_SD6-85" style="edgeStyle=orthogonalEdgeStyle;rounded=0;orthogonalLoop=1;jettySize=auto;html=1;exitX=0;exitY=0.5;exitDx=0;exitDy=0;entryX=1;entryY=0.5;entryDx=0;entryDy=0;" edge="1" parent="1" source="VaOTeJD18OuPtdKX_SD6-80" target="VaOTeJD18OuPtdKX_SD6-59">
          <mxGeometry relative="1" as="geometry" />
        </mxCell>
        <mxCell id="VaOTeJD18OuPtdKX_SD6-80" value="centroids[i] = cout &amp;gt; 0 ? Point(sumX / count, sumY / count) : Point (0,0);&lt;div&gt;i++;&lt;/div&gt;" style="rounded=0;whiteSpace=wrap;html=1;" vertex="1" parent="1">
          <mxGeometry x="500" y="512.5" width="120" height="75" as="geometry" />
        </mxCell>
        <mxCell id="VaOTeJD18OuPtdKX_SD6-90" value="конец" style="rounded=1;whiteSpace=wrap;html=1;" vertex="1" parent="1">
          <mxGeometry x="170" y="410" width="69" height="20" as="geometry" />
        </mxCell>
      </root>
    </mxGraphModel>
  </diagram>
</mxfile>
